<svg width="468" height="505" viewBox="0 0 468 505" fill="none" xmlns="http://www.w3.org/2000/svg">
<g opacity="0.3">
<g clip-path="url(#clip0)">
<path d="M346.68 107.207C327.775 105.695 312.058 111.36 297.295 119.767C297.948 118.466 298.717 117.29 299.297 116.01C310.523 89.6464 307.359 56.0154 291.1 32.4521C290.805 31.9815 290.428 31.7732 290.102 31.4704C289.183 29.116 286.937 27.384 283.783 28.5359C243.644 43.7385 216.558 83.751 215.823 125.262C198.607 100.308 170.515 80.4912 144.201 70.6422C142.253 69.9359 140.717 70.3808 139.571 71.3483C139.446 71.4639 139.321 71.5796 139.196 71.6952C138.967 71.9997 138.717 72.231 138.509 72.6088C138.332 72.8189 138.134 72.9558 138 73.3124C132.433 85.0116 132.131 100.11 132.404 112.817C132.465 114.944 133.496 116.313 134.859 117.189C135.678 117.825 136.695 118.325 138.044 118.331C170.123 118.806 198.861 135.656 215.658 162.717C181.307 166.712 147.367 154.069 113.177 168.74C80.187 182.904 60.4271 214.281 55.0838 249.186C41.4601 339.224 111.32 422.231 181.124 469.754C217.667 494.668 241.854 483.769 275.361 460.719C299.68 443.984 319.373 443.838 347.461 442.849C363.001 442.318 380.411 441.404 394.773 434.622C429.166 418.463 439.631 367.859 443.965 334.12C450.271 284.482 451.902 234.849 436.344 186.621C423.447 146.755 390.591 110.767 346.68 107.207ZM283.302 40.8266C296.685 62.1256 299.472 93.0862 287.435 115.555C276.332 136.324 253.554 148.8 232.53 158.306C232.476 157.845 232.494 157.363 232.273 156.871C215.685 112.198 239.695 59.6547 283.302 40.8266ZM143.448 107.711C143.33 99.6447 143.816 90.9265 146.21 83.3233C170.864 93.7328 196.857 114.238 210.985 138.656C193.264 120.441 169.33 109.505 143.448 107.711ZM411.405 403.118C385.661 446.395 336.133 422.622 297.135 435.747C278.43 442.04 264.697 456.74 247.931 466.442C218.019 483.844 192.236 465.979 169.175 446.292C130.117 412.973 92.2032 375.67 74.424 326.339C56.5716 277.028 60.2314 207.587 112.884 181.135C150.591 162.189 188.883 180.005 227.609 171.962C228.331 171.991 229.083 171.853 229.94 171.525C240.792 168.222 250.746 162.638 260.342 156.364C265.005 153.583 269.489 150.457 273.785 147.227C293.983 132.957 313.95 118.436 339.123 118.053C407.623 117.03 434.257 195.009 437.569 251.311C440.356 299.506 436.558 360.807 411.405 403.118Z" fill="#9CCBFF"/>
<path d="M133.773 208.917C102.231 234.098 97.2151 284.633 113.782 319.385C116.832 325.808 126.241 319.984 123.191 313.561C109.495 284.888 113.036 239.386 139.502 218.297C145.069 213.984 139.37 204.437 133.773 208.917Z" fill="#9CCBFF"/>
<path d="M127.241 339.311C120.441 341.281 123.445 351.927 130.319 349.936C137.14 348.039 134.114 337.32 127.241 339.311Z" fill="#9CCBFF"/>
</g>
</g>
<defs>
<clipPath id="clip0">
<rect y="110.751" width="398" height="422" transform="rotate(-16.1569 0 110.751)" fill="white"/>
</clipPath>
</defs>
</svg>
