<svg id="Layer_1" data-name="Layer 1" xmlns="http://www.w3.org/2000/svg" viewBox="0 0 205 979.35"><defs><style>.cls-1{fill:#005be5;}.cls-2{fill:#2e81ff;}.cls-3{fill:#9ccbff;}</style></defs><title>power</title><path class="cls-1" d="M214,568.41V0H9V568.42" transform="translate(-9)"/><path class="cls-2" d="M214,651.63V468s-28.28-14.55-49.25-14.55c-19.88,0-49.89,13.06-53,14.43-.19.08-.33.16-.51.25-3,1.59-31.14,16.41-51,16.41-20.9,0-51-16.42-51.25-16.54V651.63" transform="translate(-9)"/><path class="cls-2" d="M111.24,530.55" transform="translate(-9)"/><path class="cls-3" d="M111.75,530.8a4.81,4.81,0,0,0-.51-.25c-3.1-1.38-33.11-14.43-53-14.43-21,0-49.21,14.52-49.25,14.54V979.35H214V530.67c-.23.12-30.35,16.54-51.25,16.54C142.89,547.21,114.71,532.38,111.75,530.8Z" transform="translate(-9)"/></svg>