<svg width="219" height="610" viewBox="0 0 219 610" fill="none" xmlns="http://www.w3.org/2000/svg">
<rect x="9" width="205" height="436" rx="8" fill="#005BE5"/>
<g filter="url(#filter0_f)">
<path d="M212 103.996C212 101.046 210.388 98.3431 207.734 97.0546C198.658 92.6475 176.94 83 160.75 83C139.768 83 109.5 99.2045 109.5 99.2045V99.2045C109.5 99.2045 79.2322 115.409 58.25 115.409C45.6838 115.409 29.787 109.597 19.0563 104.934C13.5121 102.525 7 106.517 7 112.562V197C7 201.418 10.5817 205 15 205H204C208.418 205 212 201.418 212 197V103.996Z" fill="#2E81FF"/>
</g>
<g filter="url(#filter1_f)">
<path d="M9 151.425C9 148.428 10.6644 145.69 13.3865 144.436C22.1387 140.405 42.2995 132 58.25 132C78.1283 132 108.136 145.054 111.238 146.427C111.426 146.51 111.573 146.584 111.753 146.681C114.709 148.265 142.889 163.088 162.75 163.088C175.287 163.088 191.139 157.181 201.869 152.427C207.424 149.965 214 153.958 214 160.034V598.5C214 602.918 210.418 606.5 206 606.5H111.5H17C12.5817 606.5 9 602.918 9 598.5V151.425Z" fill="#9CCBFF"/>
</g>
<defs>
<filter id="filter0_f" x="0" y="76" width="219" height="136" filterUnits="userSpaceOnUse" color-interpolation-filters="sRGB">
<feFlood flood-opacity="0" result="BackgroundImageFix"/>
<feBlend mode="normal" in="SourceGraphic" in2="BackgroundImageFix" result="shape"/>
<feGaussianBlur stdDeviation="3.5" result="effect1_foregroundBlur"/>
</filter>
<filter id="filter1_f" x="6" y="129" width="211" height="480.5" filterUnits="userSpaceOnUse" color-interpolation-filters="sRGB">
<feFlood flood-opacity="0" result="BackgroundImageFix"/>
<feBlend mode="normal" in="SourceGraphic" in2="BackgroundImageFix" result="shape"/>
<feGaussianBlur stdDeviation="1.5" result="effect1_foregroundBlur"/>
</filter>
</defs>
</svg>
