<svg width="570" height="491" viewBox="0 0 570 491" fill="none" xmlns="http://www.w3.org/2000/svg">
<path opacity="0.39" d="M559.865 454.601C564.543 447.451 563.893 441.471 562.464 437.701C558.306 426.781 544.274 422.881 526.344 417.941C512.831 414.171 497.499 410.012 486.845 402.732C470.864 391.812 452.414 383.882 436.303 380.892C435.783 380.762 435.393 380.762 434.873 380.632C431.755 355.413 416.423 331.363 391.607 317.193L179.432 196.296L179.302 196.426C155.655 184.726 129.28 184.466 107.322 194.086C100.175 185.506 92.6395 177.966 87.1825 172.636C75.8786 161.327 69.1223 148.197 63.7952 137.667C57.8185 125.967 53.141 116.738 43.6562 115.308C38.1991 114.398 33.002 116.608 27.9347 121.547C9.35481 140.397 -8.05572 192.656 25.3361 225.935C36.3801 236.985 49.1132 247.125 61.7163 254.535C55.7396 289.374 68.3427 329.413 99.6557 347.223C118.366 357.883 136.296 365.942 157.084 359.313C180.862 351.773 200.091 364.382 220.62 376.082C241.279 387.782 261.808 397.792 267.524 422.231C272.462 443.551 288.573 454.861 307.283 465.52C341.844 485.15 387.839 471.5 414.085 443.421C424.219 451.741 436.562 460.321 450.335 469.68L455.272 473.06C470.734 483.59 491.782 487.1 513.221 482.81C533.62 478.52 551.03 467.99 559.865 454.601ZM38.9787 212.156C25.8558 199.026 24.9463 182.126 26.5055 170.166C28.4544 155.217 35.2108 142.217 40.9276 135.977C42.6167 138.577 44.6956 142.867 46.6445 146.377C52.3614 157.557 60.1572 172.896 73.5399 186.286C80.2962 192.916 85.7533 198.896 90.3008 204.226C82.8948 210.076 76.3983 217.355 71.591 226.065C69.9019 228.925 68.4727 231.915 67.3033 235.035C58.2082 229.315 48.4635 221.645 38.9787 212.156ZM509.453 463.7C493.082 466.95 477.36 464.48 466.186 456.941L461.119 453.561C450.725 446.541 436.692 437.051 425.518 427.821C430.456 419.111 433.444 409.882 434.614 400.522C447.736 403.382 462.548 409.882 475.801 418.851C489.184 427.951 506.075 432.631 521.146 436.661C528.682 438.741 539.466 441.731 543.494 444.201C537.518 453.171 524.525 460.711 509.453 463.7Z" stroke="#9CCBFF" stroke-width="10" stroke-miterlimit="10"/>
<path opacity="0.39" d="M176.963 305.364C176.314 306.404 175.924 307.574 175.144 308.614C173.196 310.954 170.597 311.994 167.868 310.434C165.4 308.874 165.01 306.274 166.309 303.544C167.219 301.724 168.518 300.034 169.168 298.084C169.557 296.654 169.687 294.574 168.908 293.404C167.738 291.714 165.79 290.284 163.321 292.104C161.762 293.274 160.073 294.184 158.384 294.964C155.525 296.394 152.667 296.394 150.978 293.144C149.418 290.284 150.198 287.814 153.186 286.254C154.356 285.604 155.785 285.084 156.694 284.174C157.604 283.134 158.254 281.704 158.903 280.534C157.474 279.754 156.175 278.584 154.616 278.454C152.017 278.324 149.418 278.974 146.82 279.104C142.922 279.364 140.193 277.414 140.064 274.164C139.934 270.135 142.662 269.225 145.91 268.835C147.859 268.575 149.808 268.705 151.627 268.185C152.667 267.925 153.576 266.885 154.486 266.105C153.576 265.195 152.927 264.025 151.887 263.505C149.548 262.465 146.95 262.075 144.481 261.165C141.623 260.125 139.154 258.435 140.193 254.795C141.103 251.675 143.702 250.505 147.469 251.415C148.769 251.805 150.068 252.585 151.367 252.455C153.056 252.325 154.746 251.675 156.305 251.155C158.254 250.635 160.722 249.205 162.152 249.855C163.581 250.505 164.75 253.235 164.88 255.185C165.27 258.955 164.36 262.855 164.88 266.625C168.128 289.894 195.933 301.074 214.383 286.644C215.033 286.124 215.682 285.604 216.332 285.084C218.541 283.264 221.269 282.484 223.348 284.694C225.557 286.904 225.947 289.634 223.738 292.494C223.218 293.144 223.088 294.834 223.478 295.614C224.388 297.694 225.817 299.644 226.856 301.724C228.415 304.714 228.156 307.444 225.037 309.134C222.179 310.564 219.71 309.784 218.151 306.924C217.112 304.974 216.072 303.024 214.773 301.334C214.253 300.684 212.824 300.034 212.174 300.294C211.525 300.554 210.875 301.984 211.005 302.764C211.265 304.844 212.044 306.794 212.434 308.744C213.214 311.994 212.434 314.724 208.926 315.504C205.678 316.284 203.339 314.724 202.43 311.344C202.04 310.044 201.65 308.744 201.39 307.314C200.87 304.974 200.351 303.024 196.973 303.284C193.724 303.544 193.724 305.624 193.464 307.834C193.335 308.744 193.205 309.784 193.075 310.694C192.685 313.814 190.216 315.114 187.878 314.724C186.059 314.334 184.24 312.254 183.33 310.434C182.68 308.874 183.59 306.664 183.46 304.844C183.33 303.544 182.55 302.374 182.031 301.074C180.731 301.724 179.302 302.244 178.263 303.154C177.743 303.414 177.483 304.454 176.963 305.364Z" fill="#9CCBFF"/>
<path opacity="0.39" d="M296.109 361.913C294.29 356.063 294.29 356.063 288.963 357.493C287.404 357.883 285.585 358.923 284.286 358.533C282.207 357.883 279.738 356.583 278.829 354.763C277.529 352.293 279.089 349.953 281.817 348.913C284.026 348.133 286.365 347.743 288.443 346.833C289.223 346.573 289.743 345.403 290.392 344.623C289.483 343.973 288.703 342.933 287.794 342.803C285.585 342.543 283.376 342.673 281.167 342.673C278.179 342.543 276.75 340.723 276.49 337.863C276.36 335.003 277.919 333.183 280.778 332.663C282.337 332.403 284.026 332.403 285.715 332.403C288.313 332.403 290.652 332.533 291.692 329.023C292.081 327.723 295.719 326.293 297.409 326.683C298.968 327.073 300.527 329.803 300.917 331.753C301.436 334.093 300.397 336.563 300.397 339.033C300.657 352.033 306.763 361.653 318.327 367.243C329.371 372.443 340.155 371.143 350.16 363.863C351.199 363.083 352.109 361.913 353.148 361.783C354.967 361.523 357.436 361.263 358.735 362.173C359.905 362.953 361.074 365.683 360.684 366.983C359.515 370.233 361.074 371.793 363.153 373.612C364.322 374.652 365.621 375.822 366.401 377.252C367.83 379.722 367.311 382.582 364.972 383.752C363.283 384.532 360.424 384.402 358.735 383.362C356.137 381.932 354.318 379.332 351.979 377.512C351.069 376.862 349.64 377.122 348.341 376.992C348.341 378.032 347.951 379.332 348.341 380.242C349.12 382.582 350.42 384.662 351.199 387.002C352.109 389.732 351.849 392.332 348.861 393.502C345.872 394.802 343.533 394.022 341.974 391.032C340.545 388.172 339.506 385.182 337.817 382.582C337.167 381.542 335.348 380.762 334.049 380.632C333.399 380.632 332.489 382.712 332.23 383.882C331.84 385.572 332.23 387.522 331.84 389.212C331.19 391.812 329.501 393.502 326.513 393.372C323.524 393.242 322.485 391.162 322.095 388.822C321.835 387.132 321.705 385.182 321.965 383.492C322.355 380.632 321.186 379.202 318.457 378.422C315.729 377.512 314.819 379.202 313.78 381.152C313 382.582 312.221 384.142 311.311 385.442C309.362 388.042 307.023 389.992 303.645 387.782C300.527 385.832 300.917 382.972 302.086 380.242C302.866 378.422 304.295 376.732 304.944 374.782C305.334 373.612 305.204 371.923 304.555 371.013C304.165 370.493 302.086 370.753 301.047 371.273C299.357 372.053 297.928 373.613 296.369 374.522C293.641 376.082 291.172 375.302 289.483 372.832C288.054 370.493 288.314 368.153 290.782 366.333C292.601 364.773 294.42 363.343 296.109 361.913Z" fill="#9CCBFF"/>
<g opacity="0.39">
<path opacity="0.39" d="M308.842 203.706C310.142 203.576 311.311 203.836 312.35 204.616C313.39 205.396 314.039 206.436 314.169 207.606C314.299 208.906 314.039 210.076 313.26 211.116C312.48 212.156 311.441 212.806 310.142 212.936L281.557 217.096C280.648 217.226 279.868 217.096 278.959 216.706C278.179 216.316 277.529 215.796 277.01 215.016C276.49 214.236 276.23 213.456 276.23 212.546C276.23 211.636 276.49 210.856 276.88 210.076L295.33 179.916L276.49 182.646C275.191 182.776 274.021 182.516 272.982 181.736C271.942 180.956 271.293 179.916 271.163 178.746C271.033 177.446 271.293 176.406 272.072 175.366C272.852 174.326 273.891 173.676 275.191 173.546L303.775 169.387C304.685 169.257 305.464 169.387 306.374 169.777C307.153 170.167 307.803 170.686 308.323 171.466C308.842 172.246 309.102 173.026 309.102 173.936C309.102 174.846 308.972 175.626 308.452 176.406L290.003 206.566L308.842 203.706Z" fill="#9CCBFF"/>
</g>
<g opacity="0.39">
<path opacity="0.39" d="M267.915 134.807C269.344 135.327 270.383 136.107 271.163 137.537C271.812 138.837 271.942 140.267 271.553 141.697C271.033 143.127 270.123 144.297 268.824 144.947C267.395 145.597 266.096 145.727 264.666 145.337L232.054 134.937C231.015 134.677 230.235 134.027 229.455 133.247C228.806 132.467 228.416 131.557 228.286 130.387C228.156 129.347 228.286 128.307 228.806 127.397C229.196 126.487 229.975 125.707 230.885 125.057L266.225 102.568L244.657 95.678C243.228 95.158 242.059 94.2481 241.409 92.9481C240.759 91.6481 240.629 90.2182 241.019 88.7882C241.539 87.3582 242.319 86.3182 243.748 85.5383C245.047 84.7583 246.476 84.7583 247.905 85.1483L280.518 95.548C281.557 95.808 282.337 96.458 283.116 97.238C283.766 98.018 284.156 99.058 284.286 100.098C284.416 101.138 284.286 102.178 283.766 103.088C283.376 104.128 282.597 104.908 281.687 105.428L246.346 127.917L267.915 134.807Z" fill="#9CCBFF"/>
</g>
<g opacity="0.39">
<path opacity="0.39" d="M347.821 47.8391C349.51 47.1891 351.199 47.3191 352.888 48.099C354.577 48.879 355.747 50.179 356.396 51.869C357.046 53.6889 357.046 55.3789 356.266 57.0689C355.487 58.7588 354.187 59.9288 352.498 60.5788L313.649 74.8785C312.48 75.2685 311.181 75.3985 309.881 75.1385C308.582 74.8785 307.543 74.2285 306.633 73.3185C305.724 72.4086 305.074 71.3686 304.814 70.0686C304.554 68.7686 304.554 67.5986 305.074 66.2987L321.705 17.9397L296.109 27.4295C294.42 28.0795 292.731 27.9495 291.042 27.1695C289.353 26.3895 288.183 25.0895 287.534 23.3995C286.884 21.7096 286.884 19.8896 287.664 18.3297C288.443 16.6397 289.613 15.4697 291.432 14.8197L330.28 0.520015C331.45 0.130023 332.749 2.57865e-05 334.048 0.26002C335.348 0.520015 336.387 1.17 337.297 2.07998C338.206 2.98996 338.856 4.15994 339.116 5.32992C339.375 6.62989 339.375 7.79987 338.986 9.09984L322.225 57.3289L347.821 47.8391Z" fill="#9CCBFF"/>
</g>
</svg>
