<svg width="405" height="456" viewBox="0 0 405 456" fill="none" xmlns="http://www.w3.org/2000/svg">
<g opacity="0.39">
<g clip-path="url(#clip0)">
<path d="M277.901 407.189C357.715 371.638 393.324 277.502 357.435 196.932C321.547 116.361 227.751 79.8658 147.938 115.417C68.1238 150.969 32.5153 245.104 68.4038 325.675C104.292 406.245 198.088 442.741 277.901 407.189Z" stroke="#9CCBFF" stroke-width="7" stroke-miterlimit="10"/>
<path d="M290.596 435.69C386.05 393.173 428.653 280.629 385.753 184.318C342.853 88.0064 230.695 44.3982 135.241 86.9161C39.7877 129.434 -2.81551 241.977 40.0844 338.289C82.9844 434.6 195.142 478.208 290.596 435.69Z" stroke="#9CCBFF" stroke-width="7" stroke-miterlimit="10"/>
<path d="M128.889 41.3356L104.682 52.1184L122.667 92.4951L146.874 81.7123L128.889 41.3356Z" stroke="#9CCBFF" stroke-width="7" stroke-miterlimit="10"/>
<path d="M139.098 4.62353L70.6768 35.1003L82.6396 61.9572L151.061 31.4804L139.098 4.62353Z" stroke="#9CCBFF" stroke-width="7" stroke-miterlimit="10"/>
<path d="M197.4 373.9C195.5 374.7 193.4 374.8 191.3 374C187.2 372.4 183.8 367.8 185.4 363.7L213.6 289.1L155.7 159.2C153.9 155.2 157 150.5 161 148.7C165 146.9 169.7 148.7 171.5 152.8L232.1 288.8L201.5 369.6C200.7 371.5 199.2 373.1 197.4 373.9Z" stroke="#9CCBFF" stroke-width="7" stroke-miterlimit="10"/>
<path d="M252.792 47.8717L237.183 44.8428L232.115 70.956L247.724 73.9849L252.792 47.8717Z" stroke="#9CCBFF" stroke-width="7" stroke-miterlimit="10"/>
<path d="M270.372 33.3501L226.195 24.7776L222.843 42.0555L267.019 50.628L270.372 33.3501Z" stroke="#9CCBFF" stroke-width="7" stroke-miterlimit="10"/>
<path d="M36.2327 135.859L27.5449 149.176L49.8224 163.71L58.5102 150.394L36.2327 135.859Z" stroke="#9CCBFF" stroke-width="7" stroke-miterlimit="10"/>
<path d="M29.3995 114.08L4.81152 151.768L19.5515 161.384L44.1395 123.697L29.3995 114.08Z" stroke="#9CCBFF" stroke-width="7" stroke-miterlimit="10"/>
</g>
</g>
<defs>
<clipPath id="clip0">
<rect width="406" height="455.5" fill="white"/>
</clipPath>
</defs>
</svg>
