<svg width="197" height="37" viewBox="0 0 197 37" fill="none" xmlns="http://www.w3.org/2000/svg">
<path d="M0 18.5C0 8.28273 8.28273 0 18.5 0H178.5C188.717 0 197 8.28273 197 18.5C197 28.7173 188.717 37 178.5 37H18.5C8.28273 37 0 28.7173 0 18.5Z" fill="#D6E9FF"/>
<path d="M58.8984 14.4902V24H57.9229V15.4131H54.7588L54.6182 18.9375C54.542 20.8008 54.3311 22.1045 53.9854 22.8486C53.6455 23.5869 53.0918 23.9707 52.3242 24H51.876V23.042L52.1572 23.0332C52.6611 23.0098 53.0186 22.7168 53.2295 22.1543C53.4404 21.5859 53.5811 20.5869 53.6514 19.1572L53.8184 14.4902H58.8984Z" fill="#005BE5"/>
<path d="M68.9862 14.4902H69.9618V24H68.9862V16.2217L64.7938 24H63.8182V14.4902H64.7938V22.2773L68.9862 14.4902Z" fill="#005BE5"/>
<path d="M77.8083 23.2705C78.488 23.2705 79.0095 23.0801 79.3727 22.6992C79.736 22.3184 79.9323 21.7705 79.9616 21.0557H80.902C80.8552 22.0283 80.5446 22.793 79.9704 23.3496C79.3962 23.9004 78.6755 24.1758 77.8083 24.1758C76.6774 24.1758 75.822 23.8154 75.2419 23.0947C74.6677 22.3682 74.3747 21.293 74.363 19.8691V18.709C74.363 17.2559 74.6501 16.1602 75.2243 15.4219C75.8044 14.6836 76.6628 14.3145 77.7995 14.3145C78.7429 14.3145 79.487 14.6133 80.0319 15.2109C80.5768 15.8027 80.8669 16.6318 80.902 17.6982H79.9616C79.9323 16.9131 79.7331 16.3066 79.3639 15.8789C78.9948 15.4453 78.4733 15.2285 77.7995 15.2285C76.9557 15.2285 76.3346 15.5127 75.9362 16.0811C75.5436 16.6494 75.3473 17.5225 75.3473 18.7002V19.7812C75.3473 21 75.5466 21.8877 75.945 22.4443C76.3434 22.9951 76.9645 23.2705 77.8083 23.2705Z" fill="#005BE5"/>
<path d="M90.9107 15.4043H88.0454V24H87.0698V15.4043H84.3101V14.4902H90.9107V15.4043Z" fill="#005BE5"/>
<path d="M99.7416 24C99.6537 23.6953 99.5951 23.2559 99.5658 22.6816C99.2728 23.1562 98.8949 23.5254 98.432 23.7891C97.975 24.0469 97.4769 24.1758 96.9379 24.1758C96.1175 24.1758 95.4789 23.9443 95.0218 23.4814C94.5648 23.0186 94.3363 22.3594 94.3363 21.5039C94.3363 20.5723 94.6527 19.834 95.2855 19.2891C95.9242 18.7441 96.8031 18.4688 97.9222 18.4629H99.557V17.1357C99.557 16.4561 99.3871 15.9697 99.0472 15.6768C98.7132 15.3779 98.2211 15.2285 97.5707 15.2285C96.9671 15.2285 96.472 15.4043 96.0853 15.7559C95.6986 16.1074 95.5052 16.5615 95.5052 17.1182L94.5296 17.1094C94.5296 16.3301 94.8226 15.6709 95.4086 15.1318C95.9945 14.5869 96.7298 14.3145 97.6146 14.3145C98.5697 14.3145 99.2933 14.5547 99.7855 15.0352C100.278 15.5156 100.524 16.2158 100.524 17.1357V21.8027C100.524 22.7344 100.609 23.4316 100.779 23.8945V24H99.7416ZM97.0609 23.2354C97.6351 23.2354 98.142 23.0859 98.5814 22.7871C99.0267 22.4883 99.3519 22.0898 99.557 21.5918V19.2803H98.0101C97.1195 19.292 96.4486 19.4912 95.9974 19.8779C95.5462 20.2588 95.3207 20.7744 95.3207 21.4248C95.3207 22.6318 95.9007 23.2354 97.0609 23.2354Z" fill="#005BE5"/>
<path d="M110.585 14.4902H111.561V24H110.585V16.2217L106.393 24H105.417V14.4902H106.393V22.2773L110.585 14.4902ZM111.007 11.0625C111.007 11.7305 110.779 12.2754 110.321 12.6973C109.864 13.1191 109.246 13.3301 108.467 13.3301C107.699 13.3301 107.084 13.1221 106.621 12.7061C106.158 12.2842 105.927 11.7363 105.927 11.0625H106.823C106.823 11.5312 106.961 11.8975 107.237 12.1611C107.518 12.4248 107.928 12.5566 108.467 12.5566C108.977 12.5566 109.378 12.4248 109.671 12.1611C109.964 11.8975 110.111 11.5312 110.111 11.0625H111.007Z" fill="#005BE5"/>
<path d="M122.71 24V14.4902H125.681C126.694 14.4902 127.476 14.7041 128.027 15.1318C128.578 15.5596 128.853 16.1924 128.853 17.0303C128.853 17.5049 128.73 17.9297 128.484 18.3047C128.238 18.6738 127.881 18.9434 127.412 19.1133C127.951 19.2305 128.376 19.5 128.686 19.9219C129.003 20.3379 129.161 20.8184 129.161 21.3633C129.161 22.2012 128.903 22.8486 128.388 23.3057C127.872 23.7568 127.154 23.9883 126.234 24H122.71ZM123.677 19.6318V23.1035H126.182C126.832 23.1035 127.33 22.9541 127.676 22.6553C128.021 22.3506 128.194 21.9141 128.194 21.3457C128.194 20.8184 128.021 20.4023 127.676 20.0977C127.33 19.7871 126.832 19.6318 126.182 19.6318H123.677ZM123.677 18.7354H125.742C127.166 18.7354 127.878 18.1787 127.878 17.0654C127.878 15.9873 127.189 15.4336 125.812 15.4043H123.677V18.7354Z" fill="#005BE5"/>
<path d="M139.829 14.4902V24H138.853V15.4131H135.689L135.549 18.9375C135.472 20.8008 135.261 22.1045 134.916 22.8486C134.576 23.5869 134.022 23.9707 133.255 24H132.806V23.042L133.088 23.0332C133.592 23.0098 133.949 22.7168 134.16 22.1543C134.371 21.5859 134.511 20.5869 134.582 19.1572L134.749 14.4902H139.829Z" fill="#005BE5"/>
<path d="M147.816 24.1758C146.697 24.1758 145.821 23.8096 145.188 23.0771C144.555 22.3447 144.233 21.3018 144.221 19.9482V18.7881C144.221 17.3936 144.526 16.3008 145.135 15.5098C145.745 14.7129 146.583 14.3145 147.649 14.3145C148.68 14.3145 149.465 14.6514 150.004 15.3252C150.549 15.999 150.828 17.0303 150.839 18.4189V19.333H145.188V19.8691C145.188 20.959 145.419 21.7998 145.882 22.3916C146.351 22.9834 147.01 23.2793 147.86 23.2793C148.797 23.2793 149.556 22.9365 150.136 22.251L150.646 22.9014C150.025 23.751 149.082 24.1758 147.816 24.1758ZM147.649 15.2285C146.881 15.2285 146.29 15.501 145.874 16.0459C145.463 16.585 145.238 17.376 145.197 18.4189H149.864V18.1641C149.817 16.207 149.079 15.2285 147.649 15.2285Z" fill="#005BE5"/>
<path d="M155.188 24V14.4902H158.159C159.172 14.4902 159.954 14.7041 160.505 15.1318C161.056 15.5596 161.331 16.1924 161.331 17.0303C161.331 17.5049 161.208 17.9297 160.962 18.3047C160.716 18.6738 160.359 18.9434 159.89 19.1133C160.429 19.2305 160.854 19.5 161.164 19.9219C161.481 20.3379 161.639 20.8184 161.639 21.3633C161.639 22.2012 161.381 22.8486 160.866 23.3057C160.35 23.7568 159.632 23.9883 158.712 24H155.188ZM156.155 19.6318V23.1035H158.66C159.31 23.1035 159.808 22.9541 160.154 22.6553C160.499 22.3506 160.672 21.9141 160.672 21.3457C160.672 20.8184 160.499 20.4023 160.154 20.0977C159.808 19.7871 159.31 19.6318 158.66 19.6318H156.155ZM156.155 18.7354H158.22C159.644 18.7354 160.356 18.1787 160.356 17.0654C160.356 15.9873 159.667 15.4336 158.29 15.4043H156.155V18.7354Z" fill="#005BE5"/>
<path d="M165.715 18.7617C165.715 17.3906 166.026 16.3066 166.647 15.5098C167.268 14.7129 168.115 14.3145 169.187 14.3145C170.265 14.3145 171.112 14.707 171.727 15.4922C172.348 16.2773 172.661 17.3584 172.667 18.7354V19.7461C172.667 21.1406 172.354 22.2275 171.727 23.0068C171.106 23.7861 170.265 24.1758 169.204 24.1758C168.144 24.1758 167.303 23.7949 166.682 23.0332C166.061 22.2715 165.739 21.2227 165.715 19.8867V18.7617ZM166.699 19.7461C166.699 20.8418 166.919 21.7031 167.359 22.3301C167.804 22.957 168.419 23.2705 169.204 23.2705C170.007 23.2705 170.619 22.9688 171.041 22.3652C171.469 21.7617 171.686 20.8975 171.692 19.7725V18.7617C171.692 17.666 171.469 16.8047 171.024 16.1777C170.578 15.5449 169.966 15.2285 169.187 15.2285C168.431 15.2285 167.83 15.5361 167.385 16.1514C166.94 16.7666 166.711 17.6133 166.699 18.6914V19.7461Z" fill="#005BE5"/>
<path fill-rule="evenodd" clip-rule="evenodd" d="M14.8284 22.5356L11.6464 19.3536C11.4512 19.1583 11.4512 18.8417 11.6464 18.6465L14.8284 15.4645C15.0237 15.2692 15.3403 15.2692 15.5355 15.4645C15.7308 15.6598 15.7308 15.9763 15.5355 16.1716L13.2071 18.5L39 18.5V19.5L13.2071 19.5L15.5355 21.8285C15.7308 22.0237 15.7308 22.3403 15.5355 22.5356C15.3403 22.7308 15.0237 22.7308 14.8284 22.5356Z" fill="#005BE5"/>
</svg>
