<svg width="455" height="447" viewBox="0 0 455 447" fill="none" xmlns="http://www.w3.org/2000/svg">
<g opacity="0.39">
<g clip-path="url(#clip0)">
<path d="M164.767 312.015L178.796 318.094L192.971 324.128L234.481 239.685L203.118 221.985L164.767 312.015Z" stroke="#9CCBFF" stroke-width="7" stroke-miterlimit="10"/>
<path d="M203.118 221.986L172.283 204.444L137.755 300.655L164.767 312.015L203.118 221.986Z" stroke="#9CCBFF" stroke-width="7" stroke-miterlimit="10"/>
<path d="M251.076 109.642L233.131 151.639L265.9 175.464L312.939 79.8801L284.876 30.2915L229.71 44.3947L199.935 127.465L233.131 151.639L251.076 109.642Z" stroke="#9CCBFF" stroke-width="7" stroke-miterlimit="10"/>
<path d="M137.755 300.655L105.864 286.957L92.5152 318.421L210.175 368.581L223.57 337.264L178.796 318.094L137.755 300.655Z" stroke="#9CCBFF" stroke-width="7" stroke-miterlimit="10"/>
<path d="M137.755 300.655L178.796 318.094L164.767 312.015L137.755 300.655Z" stroke="#9CCBFF" stroke-width="7" stroke-miterlimit="10"/>
<path d="M138.643 338.084L103.573 420.357L128.888 431.148L163.957 348.875L138.643 338.084Z" stroke="#9CCBFF" stroke-width="7" stroke-miterlimit="10"/>
<path d="M250.269 207.31L332.994 260.387L348.75 235.701L265.9 175.464" stroke="#9CCBFF" stroke-width="7" stroke-miterlimit="10"/>
<path d="M199.935 127.466L128.596 75.5226L75.0949 95.0322L79.7789 151.818L172.283 204.444" stroke="#9CCBFF" stroke-width="7" stroke-miterlimit="10"/>
<path d="M147.624 141.49L186.081 166.123" stroke="#9CCBFF" stroke-width="7" stroke-miterlimit="10"/>
<path d="M234.481 239.685L316.295 286.163L332.995 260.387L250.269 207.31" stroke="#9CCBFF" stroke-width="7" stroke-miterlimit="10"/>
<path d="M186.081 166.123L218.198 186.79" stroke="#9CCBFF" stroke-width="7" stroke-miterlimit="10"/>
<path d="M218.197 186.79L250.269 207.31" stroke="#9CCBFF" stroke-width="7" stroke-miterlimit="10"/>
<path d="M369.156 267.171L396.296 224.903L367.563 206.394L348.751 235.7L332.995 260.387L316.295 286.163L298.382 314.233L327.07 332.596L361.683 278.749L369.156 267.171Z" stroke="#9CCBFF" stroke-width="7" stroke-miterlimit="10"/>
<path d="M332.995 260.387L316.296 286.163L332.995 260.387Z" stroke="#9CCBFF" stroke-width="7" stroke-miterlimit="10"/>
<path d="M332.995 260.387L348.75 235.701L332.995 260.387Z" stroke="#9CCBFF" stroke-width="7" stroke-miterlimit="10"/>
<path d="M369.157 267.171L361.683 278.75L354.21 290.328L429.55 338.64L444.305 315.382L369.157 267.171Z" stroke="#9CCBFF" stroke-width="7" stroke-miterlimit="10"/>
<path d="M369.156 267.171L361.683 278.75L369.156 267.171Z" stroke="#9CCBFF" stroke-width="7" stroke-miterlimit="10"/>
</g>
</g>
<defs>
<clipPath id="clip0">
<rect y="109.352" width="371.665" height="353.013" transform="rotate(-17.1108 0 109.352)" fill="white"/>
</clipPath>
</defs>
</svg>
