<svg width="300" height="427" viewBox="0 0 300 427" fill="none" xmlns="http://www.w3.org/2000/svg">
<g clip-path="url(#clip0)">
<path opacity="0.39" d="M85.9229 242.225L98.4895 250.493C99.6134 251.208 100.942 250.799 101.35 249.473L112.18 213.746" stroke="#9CCBFF" stroke-width="10" stroke-miterlimit="10" stroke-linecap="round"/>
<path opacity="0.39" d="M151.72 215.686L253.786 178.53" stroke="#9CCBFF" stroke-width="10" stroke-miterlimit="10" stroke-linecap="round"/>
<path opacity="0.39" d="M108.502 304.389L121.069 312.657C122.192 313.372 123.521 312.963 123.929 311.636L134.759 275.91" stroke="#9CCBFF" stroke-width="10" stroke-miterlimit="10" stroke-linecap="round"/>
<path opacity="0.39" d="M174.299 277.85L276.467 240.796" stroke="#9CCBFF" stroke-width="10" stroke-miterlimit="10" stroke-linecap="round"/>
<path opacity="0.39" d="M130.673 365.124L143.24 373.392C144.363 374.107 145.692 373.698 146.1 372.371L156.93 336.645" stroke="#9CCBFF" stroke-width="10" stroke-miterlimit="10" stroke-linecap="round"/>
<path opacity="0.39" d="M196.469 338.584L298.535 301.531" stroke="#9CCBFF" stroke-width="10" stroke-miterlimit="10" stroke-linecap="round"/>
<path opacity="0.3" d="M225.382 36.9513L202.803 45.1173C198.921 34.3994 187.069 28.8873 176.342 32.7662L141.911 45.3215C135.372 35.4201 122.601 30.8267 110.954 35.1139C99.3068 39.299 92.4616 51.0377 93.7898 62.7764L61.096 74.6171C50.3684 78.496 44.8513 90.3368 48.7337 101.055L26.1545 109.221C6.74261 116.264 -3.26985 137.7 3.77974 157.094L117.595 469.853C124.645 489.248 146.1 499.251 165.512 492.208L364.842 419.836C384.253 412.793 394.266 391.357 387.216 371.963L273.299 59.3058C266.249 39.9115 244.794 29.9081 225.382 36.9513ZM375.671 376.25C380.371 389.214 373.628 403.708 360.653 408.404L161.323 480.775C148.347 485.471 133.84 478.734 129.14 465.77L15.3247 153.113C10.625 140.15 17.3681 125.655 30.3434 120.959L52.9226 112.793L54.2507 116.366C58.1331 127.084 69.9846 132.596 80.7123 128.717L195.958 86.8662C206.685 82.9873 212.202 71.1466 208.32 60.4286L206.992 56.856L229.571 48.69C242.546 43.9945 257.054 50.7315 261.754 63.6951L375.671 376.25Z" fill="#9CCBFF"/>
</g>
<defs>
<clipPath id="clip0">
<rect width="377" height="541" fill="white"/>
</clipPath>
</defs>
</svg>
