<svg width="509" height="633" viewBox="0 0 509 633" fill="none" xmlns="http://www.w3.org/2000/svg">
<path opacity="0.39" d="M130.462 300.218L145.188 309.821C146.505 310.651 148.061 310.177 148.54 308.636L161.231 267.139" stroke="#9CCBFF" stroke-width="10" stroke-miterlimit="10" stroke-linecap="round"/>
<path opacity="0.39" d="M206.77 269.601L323.693 226.514" stroke="#9CCBFF" stroke-width="10" stroke-miterlimit="10" stroke-linecap="round"/>
<path opacity="0.39" d="M156.308 371.619L171.034 381.223C172.351 382.052 173.907 381.578 174.386 380.037L187.077 338.54" stroke="#9CCBFF" stroke-width="10" stroke-miterlimit="10" stroke-linecap="round"/>
<path opacity="0.39" d="M232.615 341.002L349.538 297.915" stroke="#9CCBFF" stroke-width="10" stroke-miterlimit="10" stroke-linecap="round"/>
<path opacity="0.39" d="M182.154 441.789L196.291 451.392C197.556 452.222 199.05 451.748 199.51 450.207L211.693 408.71" stroke="#9CCBFF" stroke-width="10" stroke-miterlimit="10" stroke-linecap="round"/>
<path opacity="0.39" d="M257.23 411.172L375.384 368.085" stroke="#9CCBFF" stroke-width="10" stroke-miterlimit="10" stroke-linecap="round"/>
<path opacity="0.3" d="M296.017 24.1853L266.16 34.9984C261.026 20.8063 245.354 13.5074 231.169 18.6436L185.64 35.2687C176.994 22.1579 160.106 16.0755 144.705 21.7524C129.303 27.2941 120.252 42.8379 122.008 58.3817L78.776 74.0606C64.5905 79.1968 57.2951 94.8758 62.4289 109.068L32.5718 119.881C6.90277 129.207 -6.33703 157.592 2.98487 183.273L153.486 597.413C162.808 623.094 191.179 636.34 216.848 627.014L480.428 531.183C506.097 521.857 519.337 493.472 510.015 467.791L359.379 53.7861C350.057 28.1051 321.686 14.8591 296.017 24.1853ZM494.749 473.468C500.963 490.634 492.047 509.827 474.889 516.045L211.309 611.875C194.151 618.093 174.967 609.172 168.753 592.006L18.2512 178.001C12.0366 160.835 20.9532 141.642 38.1109 135.425L67.968 124.612L69.7243 129.342C74.8581 143.535 90.5297 150.833 104.715 145.697L257.108 90.2802C271.293 85.144 278.589 69.465 273.455 55.2729L271.699 50.5422L301.556 39.7291C318.714 33.5116 337.898 42.4324 344.112 59.5981L494.749 473.468Z" fill="#9CCBFF"/>
</svg>
